Coordinates
version=1
nRows=26
nColumns=24
inDegrees=yes

Units are S.I. units (second, meters, Newtons, ...)
Angles are in degrees.

endheader
time	pelvis_tilt	pelvis_list	pelvis_rotation	pelvis_tx	pelvis_ty	pelvis_tz	hip_flexion_r	hip_adduction_r	hip_rotation_r	knee_angle_r	ankle_angle_r	subtalar_angle_r	mtp_angle_r	hip_flexion_l	hip_adduction_l	hip_rotation_l	knee_angle_l	ankle_angle_l	subtalar_angle_l	mtp_angle_l	lumbar_extension	lumbar_bending	lumbar_rotation
      1.32533333	     -5.71946768	      2.76804197	     -5.75872834	      0.49215063	      1.06987313	      0.26620392	     25.09528612	     -4.44830070	     -2.36400285	    -65.21568679	      2.20389699	     -2.24165560	      9.95236349	     10.45782187	      4.10521002	      4.24157737	     -9.32041185	      3.77579150	     -5.91846252	      2.89471175	     -9.62155146	     -4.59466226	     -1.42516413
      1.32950000	     -5.68756095	      2.66095345	     -5.64565421	      0.49725828	      1.07056029	      0.26591670	     25.45495941	     -4.33643379	     -2.57681161	    -64.50925928	      2.50946060	     -2.10472986	     10.00583300	      9.86183971	      4.04209438	      4.48103639	     -8.78691143	      3.67562525	     -6.09164536	      2.89643685	     -9.62243014	     -4.42222516	     -1.58671850
      1.33366667	     -5.67966018	      2.56239930	     -5.53987398	      0.50235828	      1.07111893	      0.26563671	     25.84058274	     -4.23180369	     -2.77990967	    -63.78736907	      2.79278793	     -1.94056072	     10.04632693	      9.30291165	      3.98171038	      4.69987234	     -8.27923053	      3.65641344	     -6.21666983	      2.89739071	     -9.59830584	     -4.25023492	     -1.72324620
      1.33783333	     -5.64316551	      2.45312092	     -5.43613154	      0.50744295	      1.07170456	      0.26537317	     26.17973677	     -4.11726169	     -2.98151781	    -63.02440508	      3.05837846	     -1.83431105	     10.07995057	      8.71404443	      3.90811531	      4.91362011	     -7.77065640	      3.61520914	     -6.34323559	      2.89565272	     -9.61202103	     -4.07121310	     -1.86249254
      1.34200000	     -5.64407504	      2.36863119	     -5.33577195	      0.51252638	      1.07214619	      0.26513419	     26.55972035	     -4.02263928	     -3.16710738	    -62.25085163	      3.33944223	     -1.74703010	     10.11735381	      8.16677879	      3.85435751	      5.14251324	     -7.25735904	      3.52294262	     -6.53296048	      2.88976895	     -9.57120354	     -3.92249364	     -2.01739357
      1.34616667	     -5.62404931	      2.27648928	     -5.24140604	      0.51759552	      1.07258010	      0.26490829	     26.90595159	     -3.92105453	     -3.34776184	    -61.44456884	      3.58740540	     -1.67624828	     10.14749897	      7.60353491	      3.78999325	      5.34736036	     -6.75925802	      3.48069707	     -6.67610122	      2.88231565	     -9.55772124	     -3.76165992	     -2.14247775
      1.35033333	     -5.61870978	      2.18605994	     -5.15315398	      0.52265095	      1.07292596	      0.26470208	     27.26151520	     -3.81553492	     -3.51327331	    -60.61397491	      3.80554635	     -1.61817890	     10.16572862	      7.06689084	      3.72177350	      5.53203315	     -6.28543755	      3.48592366	     -6.77666673	      2.87645253	     -9.53559296	     -3.60703848	     -2.25344269
      1.35450000	     -5.63668766	      2.08786510	     -5.06542152	      0.52770067	      1.07319212	      0.26452371	     27.62752672	     -3.69527303	     -3.67327056	    -59.74933798	      4.03678945	     -1.60646043	     10.17337011	      6.57929642	      3.63707394	      5.63674480	     -5.85937092	      3.48920130	     -6.77757581	      2.87357593	     -9.47335902	     -3.45600066	     -2.30566897
      1.35866667	     -5.63743781	      2.02718072	     -4.98458870	      0.53272458	      1.07339469	      0.26436409	     27.98301539	     -3.61585348	     -3.81208226	    -58.88901119	      4.25182117	     -1.60882644	     10.18442840	      6.03609470	      3.59544472	      5.91054404	     -5.34531924	      3.40923848	     -7.05998416	      2.85874259	     -9.44843219	     -3.32831870	     -2.51275037
      1.36283333	     -5.67368748	      1.94574818	     -4.91040255	      0.53775701	      1.07351200	      0.26423108	     28.35703844	     -3.50458772	     -3.94202376	    -57.98322541	      4.44605338	     -1.61959422	     10.18711155	      5.57859343	      3.52098404	      6.00047323	     -4.93901694	      3.44844373	     -7.05278955	      2.85543815	     -9.36196167	     -3.19255827	     -2.53955266
      1.36700000	     -5.63114848	      1.87829381	     -4.84250432	      0.54273810	      1.07369709	      0.26411040	     28.64507346	     -3.41501879	     -4.05869624	    -57.06601709	      4.59998340	     -1.67100509	     10.18553897	      5.00904795	      3.46778664	      6.20381077	     -4.46673801	      3.44722083	     -7.22025439	      2.84458478	     -9.39330462	     -3.06596109	     -2.68011140
      1.37116667	     -5.69465988	      1.82604727	     -4.77453377	      0.54772808	      1.07363717	      0.26402387	     29.04187609	     -3.32341093	     -4.15125000	    -56.13262224	      4.78165446	     -1.75148496	     10.17911282	      4.56866520	      3.41707096	      6.40195182	     -4.02318668	      3.40296436	     -7.40644949	      2.82811702	     -9.28890629	     -2.96436855	     -2.79087149
      1.37533333	     -5.70002540	      1.77505622	     -4.71657296	      0.55269218	      1.07363543	      0.26396728	     29.36623611	     -3.23370964	     -4.23022651	    -55.17321082	      4.94060975	     -1.83893201	     10.16935598	      4.07827750	      3.36913641	      6.53215107	     -3.60516677	      3.41745842	     -7.48499920	      2.81498651	     -9.25678756	     -2.86893863	     -2.86144786
      1.37950000	     -5.73069148	      1.72888349	     -4.66185422	      0.55765557	      1.07351976	      0.26392042	     29.71070392	     -3.14626575	     -4.30209722	    -54.19692161	      5.06614088	     -1.94757753	     10.15636514	      3.61963761	      3.32231667	      6.66232187	     -3.19778909	      3.45326466	     -7.57022730	      2.80406179	     -9.18453753	     -2.77037527	     -2.93349413
      1.38366667	     -5.74784968	      1.68515473	     -4.61071057	      0.56259713	      1.07338751	      0.26390205	     30.02980917	     -3.05611089	     -4.35571488	    -53.19697964	      5.19012246	     -2.08304343	     10.14147049	      3.14922349	      3.27576057	      6.78780883	     -2.79273422	      3.48070102	     -7.64644873	      2.79346524	     -9.13959718	     -2.68477092	     -3.00314747
      1.38783333	     -5.76683621	      1.65602102	     -4.56487646	      0.56751094	      1.07319663	      0.26391557	     30.34621097	     -2.97348914	     -4.38501710	    -52.18067919	      5.30682476	     -2.23996090	     10.12127655	      2.68521473	      3.24152133	      6.92363031	     -2.39317834	      3.49715134	     -7.74864957	      2.78118152	     -9.10014503	     -2.62022388	     -3.07931802
      1.39200000	     -5.82214097	      1.63566090	     -4.52594984	      0.57244861	      1.07287730	      0.26394705	     30.69637776	     -2.89689093	     -4.40922955	    -51.15820889	      5.45443282	     -2.35732655	     10.11200813	      2.27296803	      3.21204659	      6.98053606	     -2.02171455	      3.55146477	     -7.74220784	      2.77752756	     -9.01206831	     -2.56454710	     -3.10932359
      1.39616667	     -5.83754707	      1.62646187	     -4.48593668	      0.57734049	      1.07258408	      0.26399913	     30.99411364	     -2.82652784	     -4.40659829	    -50.10721188	      5.48683063	     -2.59513298	     10.08668030	      1.80589793	      3.19536078	      7.13846645	     -1.62254216	      3.58309149	     -7.88194597	      2.76589924	     -8.96745842	     -2.52074650	     -3.19588264
      1.40033333	     -5.87020830	      1.61918694	     -4.45141626	      0.58223969	      1.07220675	      0.26406790	     31.30118922	     -2.75486658	     -4.39500403	    -49.04366288	      5.57134706	     -2.77817618	     10.06189622	      1.36085238	      3.17692245	      7.26469554	     -1.23032951	      3.61001856	     -7.98322754	      2.75353255	     -8.91205371	     -2.48298467	     -3.25272243
      1.40450000	     -5.91179065	      1.62135586	     -4.41883642	      0.58714110	      1.07176619	      0.26415383	     31.60811428	     -2.68900878	     -4.36977683	    -47.96433545	      5.68696248	     -2.93194191	     10.04798082	      0.94203475	      3.16719097	      7.33087805	     -0.87380586	      3.65840876	     -7.99620572	      2.74828913	     -8.84028364	     -2.45069908	     -3.28586443
      1.40866667	     -5.94487292	      1.64267570	     -4.39097784	      0.59201793	      1.07127131	      0.26426706	     31.90595433	     -2.63768076	     -4.32390515	    -46.87934622	      5.69970120	     -3.17590090	     10.02154717	      0.49962181	      3.17546925	      7.46472163	     -0.48397633	      3.70787023	     -8.10633552	      2.73724768	     -8.78042714	     -2.45146288	     -3.35101360
      1.41283333	     -5.96094460	      1.66295609	     -4.36408410	      0.59689145	      1.07077817	      0.26439419	     32.17088903	     -2.58493301	     -4.27024586	    -45.77239741	      5.75268333	     -3.37022138	      9.99567005	      0.04211882	      3.18156010	      7.58454913	     -0.10083819	      3.74346276	     -8.20358444	      2.72436282	     -8.75169040	     -2.45340438	     -3.40273827
      1.41700000	     -6.01222286	      1.68071496	     -4.33592938	      0.60179718	      1.07017867	      0.26452632	     32.45947518	     -2.52575507	     -4.21040099	    -44.64983809	      5.84656542	     -3.50615837	      9.98340407	     -0.36409533	      3.18279768	      7.64518695	      0.24782274	      3.80327881	     -8.20581763	      2.71951019	     -8.66703198	     -2.44233010	     -3.43026920
      1.42116667	     -6.04123285	      1.72520191	     -4.31540731	      0.60667076	      1.06955726	      0.26469094	     32.72637636	     -2.48966171	     -4.13057093	    -43.52253848	      5.82649222	     -3.75506683	      9.95746399	     -0.81404497	      3.20977556	      7.78539076	      0.64528761	      3.84763912	     -8.33242270	      2.70532490	     -8.62628855	     -2.47371914	     -3.49080976
      1.42533333	     -6.08245852	      1.76167532	     -4.28950683	      0.61157833	      1.06887232	      0.26484324	     32.98788259	     -2.44937312	     -4.05613224	    -42.37877450	      5.89665366	     -3.87609571	      9.94417030	     -1.23513015	      3.22894476	      7.86180161	      1.00262877	      3.89966523	     -8.36938878	      2.69653670	     -8.56177942	     -2.48586509	     -3.52591009
      1.42950000	     -6.10004939	      1.80301777	     -4.26769863	      0.61646900	      1.06818707	      0.26501994	     33.21766014	     -2.41195928	     -3.97192083	    -41.22513015	      5.91405951	     -4.02648444	      9.93002405	     -1.69017782	      3.25160611	      7.96409703	      1.37955475	      3.95887711	     -8.43303252	      2.68579973	     -8.53498462	     -2.51531230	     -3.56956204
